<svg id="Group_166" data-name="Group 166" xmlns="http://www.w3.org/2000/svg" width="186.909" height="52.124" viewBox="0 0 186.909 52.124">
  <path id="Path_170" data-name="Path 170" d="M577.97,295.743l3.995-1.7a2.037,2.037,0,0,1,2.836,1.874V320.3a4.076,4.076,0,0,1-2.477,3.749l-3.995,1.7a2.038,2.038,0,0,1-2.836-1.875V299.492a4.075,4.075,0,0,1,2.478-3.749" transform="translate(-548.635 -283.861)" fill="#0061ff"/>
  <path id="Path_171" data-name="Path 171" d="M491.151,230.93l3.995-1.7a2.037,2.037,0,0,1,2.836,1.874V275.57a4.075,4.075,0,0,1-2.478,3.748l-3.995,1.7a2.038,2.038,0,0,1-2.836-1.875V234.679a4.075,4.075,0,0,1,2.478-3.749" transform="translate(-475.231 -229.062)" fill="#0554e5"/>
  <path id="Path_172" data-name="Path 172" d="M404.155,324.374l3.995-1.7a2.037,2.037,0,0,1,2.836,1.874v14.305a4.075,4.075,0,0,1-2.478,3.748l-3.995,1.7a2.037,2.037,0,0,1-2.836-1.874v-14.3a4.075,4.075,0,0,1,2.478-3.749" transform="translate(-401.677 -308.068)" fill="#0847cc"/>
  <path id="Path_173" data-name="Path 173" d="M730.714,330h5.361l-5.588,20.7H725.41l-3.687-12.253L718.036,350.7h-4.963L707.485,330h5.474l2.922,12.395L719.369,330h4.878l3.517,12.508Z" transform="translate(-660.233 -314.402)"/>
  <path id="Path_174" data-name="Path 174" d="M900.482,370.952c0-2.3-1.3-3.659-3.12-3.659s-3.12,1.361-3.12,3.659,1.305,3.658,3.12,3.658,3.12-1.361,3.12-3.658m-11.118,0a8,8,0,1,1,8,7.913,7.664,7.664,0,0,1-8-7.913" transform="translate(-814.01 -342.338)"/>
  <path id="Path_175" data-name="Path 175" d="M1017.313,364.509v4.425h-1.531c-2.78,0-4.113,1.332-4.113,4.112v6.836h-4.822V364.509h4.708V367.2a4.661,4.661,0,0,1,4.4-2.695Z" transform="translate(-913.34 -343.581)"/>
  <rect id="Rectangle_9" data-name="Rectangle 9" width="4.822" height="20.705" transform="translate(106.129 15.596)"/>
  <path id="Path_176" data-name="Path 176" d="M1144.669,343.017c0-2.3-1.361-3.659-3.176-3.659s-3.177,1.361-3.177,3.659,1.361,3.658,3.177,3.658,3.176-1.361,3.176-3.658M1144.613,330h4.822v20.7h-4.708v-2.07a5.1,5.1,0,0,1-4.511,2.3c-3.715,0-6.778-3.035-6.778-7.913s3.063-7.913,6.778-7.913a5.169,5.169,0,0,1,4.4,2.127Z" transform="translate(-1020.372 -314.402)"/>
  <path id="Path_177" data-name="Path 177" d="M1261.4,338.9a2.162,2.162,0,1,0,0-4.311h-3.12V338.9Zm.283-8.906c4.255,0,7.26,2.666,7.26,6.75s-3.006,6.751-7.26,6.751h-3.4v7.2h-5.163V330Z" transform="translate(-1121.561 -314.402)"/>
  <rect id="Rectangle_10" data-name="Rectangle 10" width="4.822" height="20.705" transform="translate(149.508 15.596)"/>
  <path id="Path_178" data-name="Path 178" d="M1424.266,364.509h4.822v15.373h-4.708v-2.3a5.81,5.81,0,0,1-4.879,2.524c-2.978,0-5.276-2.127-5.276-5.985v-9.615h4.822v8.2c0,2.014.965,2.978,2.439,2.978,1.561,0,2.78-1.078,2.78-3.262Z" transform="translate(-1257.773 -343.581)"/>
  <path id="Path_179" data-name="Path 179" d="M1524.149,373.507h4.595c.056.992,1.021,1.673,2.411,1.673,1.163,0,1.872-.482,1.872-1.191,0-.538-.454-.964-1.872-1.219l-2.61-.482c-2.978-.539-4.4-2.014-4.4-4.2,0-2.922,2.5-5.049,6.665-5.049,3.914,0,6.438,1.872,6.637,5.049h-4.594c-.142-.766-.964-1.418-2.355-1.418-1.162,0-1.758.454-1.758,1.077,0,.483.4.766,1.843,1.021l2.61.482c2.978.539,4.424,2.014,4.424,4.339,0,3.092-2.524,5.276-6.693,5.276-4.14,0-6.75-2.155-6.778-5.36" transform="translate(-1350.712 -342.339)"/>
</svg>
