<svg xmlns="http://www.w3.org/2000/svg" xmlns:xlink="http://www.w3.org/1999/xlink" width="270" height="93" viewBox="0 0 270 93">
  <defs>
    <clipPath id="clip-Artboard_7">
      <rect width="270" height="93"/>
    </clipPath>
  </defs>
  <g id="Artboard_7" data-name="Artboard – 7" clip-path="url(#clip-Artboard_7)">
    <g id="Group_195" data-name="Group 195" transform="translate(-1172.049 -890.092)">
      <path id="Path_226" data-name="Path 226" d="M1380.932,931.208a11.166,11.166,0,0,1,1.938-4.322,1.771,1.771,0,0,1,.894-.179,12.73,12.73,0,0,0-.179,2.086q0,5.845,6.081,5.845a14.129,14.129,0,0,1-2.831,6.081q-2.058,2.5-4.026,2.5-2.8,0-2.8-5.546a23.52,23.52,0,0,1,.924-6.469m7.542,13.624a22.626,22.626,0,0,0,5.187-10.673,25.351,25.351,0,0,0,6.558-2.147l-.059-.654a4.95,4.95,0,0,0-.6-2.5l-.835.238a20.609,20.609,0,0,1-4.77.775,11.949,11.949,0,0,0-1.46-5.784,4.657,4.657,0,0,0-4.264-2.028,9.6,9.6,0,0,0-2.683.418l-2.682-.238a12.719,12.719,0,0,0-10.195,4.561,16.587,16.587,0,0,0-3.877,11.119q0,5.367,2.683,8.317a9.409,9.409,0,0,0,7.333,2.952,12.407,12.407,0,0,0,9.66-4.352m-34.015-13.624a11.194,11.194,0,0,1,1.937-4.322,1.774,1.774,0,0,1,.894-.179,12.731,12.731,0,0,0-.179,2.086q0,5.845,6.082,5.845a14.11,14.11,0,0,1-2.831,6.081q-2.058,2.5-4.025,2.5-2.8,0-2.8-5.546a23.511,23.511,0,0,1,.924-6.469M1362,944.833a22.626,22.626,0,0,0,5.187-10.673,25.352,25.352,0,0,0,6.558-2.147l-.059-.654a4.951,4.951,0,0,0-.6-2.5l-.834.238a20.584,20.584,0,0,1-4.77.775,11.946,11.946,0,0,0-1.46-5.784,4.655,4.655,0,0,0-4.262-2.028,9.622,9.622,0,0,0-2.685.418l-2.682-.238a12.722,12.722,0,0,0-10.2,4.561,16.592,16.592,0,0,0-3.876,11.119q0,5.367,2.683,8.317a9.414,9.414,0,0,0,7.333,2.952,12.406,12.406,0,0,0,9.66-4.352m-37.2,4.352a13.13,13.13,0,0,0,8.765-3.757,27.482,27.482,0,0,0,6.589-8.615,20.392,20.392,0,0,0,2.356-8.734q0-5.96-7.215-5.963l-.716.955a14.124,14.124,0,0,0-1.491,3.07,17.722,17.722,0,0,0-1.073,4.681l4.412,4.233a14.178,14.178,0,0,1-3.01,5.335q-2.3,2.714-3.728,2.714-.893,0-.894-1.58a45.813,45.813,0,0,1,.924-6.529,44.622,44.622,0,0,0,.925-7.513,5.851,5.851,0,0,0-1.222-3.965q-1.224-1.4-4.263-1.4a34.719,34.719,0,0,0-7.632,1.074l-.239.894a14.877,14.877,0,0,1,1.82,2.593,5.932,5.932,0,0,1,.446,2.534l-.775,12.461q0,7.512,6.022,7.512m-21.959-17.976a11.2,11.2,0,0,1,1.937-4.322,1.779,1.779,0,0,1,.894-.179,12.7,12.7,0,0,0-.178,2.086q0,5.845,6.083,5.845a14.133,14.133,0,0,1-2.833,6.081q-2.058,2.5-4.025,2.5-2.8,0-2.8-5.546a23.585,23.585,0,0,1,.924-6.469m7.542,13.624a22.628,22.628,0,0,0,5.187-10.673,25.344,25.344,0,0,0,6.558-2.147l-.059-.654a4.949,4.949,0,0,0-.6-2.5l-.835.238a20.579,20.579,0,0,1-4.768.775,11.948,11.948,0,0,0-1.461-5.784,4.658,4.658,0,0,0-4.263-2.028,9.6,9.6,0,0,0-2.682.418l-2.685-.238a12.722,12.722,0,0,0-10.195,4.561,16.588,16.588,0,0,0-3.876,11.119q0,5.367,2.684,8.317a9.411,9.411,0,0,0,7.332,2.952,12.407,12.407,0,0,0,9.66-4.352m-34.015-13.624a11.179,11.179,0,0,1,1.938-4.322,1.771,1.771,0,0,1,.894-.179,12.733,12.733,0,0,0-.18,2.086q0,5.845,6.083,5.845a14.135,14.135,0,0,1-2.833,6.081q-2.056,2.5-4.023,2.5-2.8,0-2.8-5.546a23.571,23.571,0,0,1,.924-6.469m7.542,13.624a22.614,22.614,0,0,0,5.189-10.673,25.347,25.347,0,0,0,6.557-2.147l-.059-.654a4.97,4.97,0,0,0-.6-2.5l-.835.238a20.606,20.606,0,0,1-4.769.775,11.948,11.948,0,0,0-1.461-5.784,4.656,4.656,0,0,0-4.263-2.028,9.6,9.6,0,0,0-2.682.418l-2.683-.238a12.727,12.727,0,0,0-10.2,4.561,16.587,16.587,0,0,0-3.874,11.119q0,5.367,2.682,8.317a9.413,9.413,0,0,0,7.334,2.952,12.4,12.4,0,0,0,9.658-4.352m-59.36,4.352q5.486,0,11.448-6.26a8.019,8.019,0,0,0,2.5,4.71,6.394,6.394,0,0,0,4.233,1.55q4.471,0,9.153-3.757a36.939,36.939,0,0,0,8.109-9.182,57.815,57.815,0,0,0,5.634-11.656,33.807,33.807,0,0,0,2.206-11.12,7.044,7.044,0,0,0-2.206-5.008q-2.2-2.266-6.5-2.266a8.122,8.122,0,0,0-1.67,1.372,15.612,15.612,0,0,0-3.816,9.063l6.737,4.53a24.333,24.333,0,0,1-2.415,8.8,31.325,31.325,0,0,1-4.83,7.661q-2.654,2.982-4.352,2.982t-1.7-3.339q0-1.669,1.52-10.911a93.629,93.629,0,0,0,1.521-13.655,16.149,16.149,0,0,0-1.013-6.558,30.264,30.264,0,0,0-12.461,2.445,29.178,29.178,0,0,1,1.132,8.525,108.445,108.445,0,0,1-.864,12.193q-.866,7.365-.865,7.721a11.633,11.633,0,0,1-2.743,2.475,5.543,5.543,0,0,1-2.8,1.163,1.607,1.607,0,0,1-1.55-1.013,11.9,11.9,0,0,1-.476-4.234q0-3.218.715-10.284t.714-12.134q0-5.066-1.49-6.8a59.04,59.04,0,0,0-14.311,1.372l-.238,1.192.775.894a21.215,21.215,0,0,1,2.5,3.4,20.489,20.489,0,0,1,.954,7.273q0,4.95-.476,10.792t-.478,9.54a9.261,9.261,0,0,0,2,6.111,6.634,6.634,0,0,0,5.4,2.414" transform="translate(0 0)" fill="#0061ff"/>
      <path id="Path_227" data-name="Path 227" d="M1356.679,970.736V980.7h.831v-9.962h3.5v-.784h-7.828v.784Z" transform="translate(-36.167 -16.568)" fill="#0747cc"/>
      <path id="Path_228" data-name="Path 228" d="M1363.717,977.309a3.075,3.075,0,0,1,.351-1.192,3.176,3.176,0,0,1,.719-.9,3.259,3.259,0,0,1,2.121-.775,3.412,3.412,0,0,1,1.158.195,2.917,2.917,0,0,1,.97.574,3.087,3.087,0,0,1,.7.909,3.286,3.286,0,0,1,.338,1.192Zm7.136.549c0-.053,0-.11.008-.173s.007-.125.007-.188a3.714,3.714,0,0,0-1.105-2.651,4.071,4.071,0,0,0-1.255-.831,4.075,4.075,0,0,0-4.47.855,3.891,3.891,0,0,0-.848,1.278,4.289,4.289,0,0,0,0,3.185,3.9,3.9,0,0,0,.848,1.278,3.947,3.947,0,0,0,1.285.854,4.126,4.126,0,0,0,5.263-1.631l-.6-.407a3.443,3.443,0,0,1-1.158,1.184,3.986,3.986,0,0,1-3.068.228,3.25,3.25,0,0,1-1.009-.592,2.949,2.949,0,0,1-.719-.947,3.383,3.383,0,0,1-.32-1.284h7.122a.892.892,0,0,1,.015-.157" transform="translate(-38.686 -17.542)" fill="#0747cc"/>
      <path id="Path_229" data-name="Path 229" d="M1382.607,979.835l-.6-.407a3.156,3.156,0,0,1-3,1.614,3.257,3.257,0,0,1-1.295-.252,3.009,3.009,0,0,1-1.012-.7,3.235,3.235,0,0,1-.66-1.056,3.578,3.578,0,0,1-.234-1.3,3.671,3.671,0,0,1,.227-1.3,2.987,2.987,0,0,1,1.663-1.741,3.238,3.238,0,0,1,1.295-.253,3.453,3.453,0,0,1,1.85.441,3.521,3.521,0,0,1,1.161,1.191l.6-.407A3.85,3.85,0,0,0,1379,973.7a4.022,4.022,0,0,0-1.593.313,3.787,3.787,0,0,0-2.07,2.126,4.208,4.208,0,0,0-.29,1.576,4.306,4.306,0,0,0,.29,1.6,3.912,3.912,0,0,0,.814,1.287,3.8,3.8,0,0,0,1.256.863,3.983,3.983,0,0,0,1.593.313,3.938,3.938,0,0,0,3.607-1.944" transform="translate(-41.843 -17.541)" fill="#0747cc"/>
      <path id="Path_230" data-name="Path 230" d="M1387.658,980.7V976.21a2.813,2.813,0,0,1,.69-2.015,2.426,2.426,0,0,1,1.851-.731,2.251,2.251,0,0,1,1.734.668,2.626,2.626,0,0,1,.618,1.859V980.7h.769v-4.8a3.708,3.708,0,0,0-.219-1.31,2.734,2.734,0,0,0-1.577-1.632,3.29,3.29,0,0,0-1.247-.228,2.924,2.924,0,0,0-2.619,1.318v-4.093h-.768V980.7Z" transform="translate(-44.918 -16.568)" fill="#0747cc"/>
      <path id="Path_231" data-name="Path 231" d="M1397.886,973.827v7.842h.769v-4.486a2.81,2.81,0,0,1,.691-2.015,2.423,2.423,0,0,1,1.85-.729,2.255,2.255,0,0,1,1.733.666,2.631,2.631,0,0,1,.619,1.859v4.705h.768v-4.8a3.753,3.753,0,0,0-.218-1.31,2.735,2.735,0,0,0-1.578-1.631,3.256,3.256,0,0,0-1.245-.228,2.922,2.922,0,0,0-2.621,1.318v-1.192Z" transform="translate(-47.773 -17.541)" fill="#0747cc"/>
      <path id="Path_232" data-name="Path 232" d="M1411.09,980.79a3.036,3.036,0,0,1-1.036-.7,3.409,3.409,0,0,1,0-4.706,3.035,3.035,0,0,1,1.036-.7,3.364,3.364,0,0,1,1.309-.253,3.312,3.312,0,0,1,1.3.253,3.048,3.048,0,0,1,1.026.7,3.413,3.413,0,0,1,0,4.706,3.049,3.049,0,0,1-1.026.7,3.313,3.313,0,0,1-1.3.253,3.365,3.365,0,0,1-1.309-.253m4.173-.18a4.04,4.04,0,0,0-2.863-6.911,4.067,4.067,0,0,0-3.734,5.633,3.953,3.953,0,0,0,2.134,2.132,4.178,4.178,0,0,0,3.185,0,3.972,3.972,0,0,0,1.279-.854" transform="translate(-50.491 -17.541)" fill="#0747cc"/>
      <rect id="Rectangle_18" data-name="Rectangle 18" width="0.769" height="10.744" transform="translate(1367.337 953.385)" fill="#0747cc"/>
      <path id="Path_233" data-name="Path 233" d="M1429.4,974.691a3.067,3.067,0,0,1,1.028.7,3.417,3.417,0,0,1,0,4.706,3.063,3.063,0,0,1-1.028.7,3.31,3.31,0,0,1-1.3.253,3.365,3.365,0,0,1-1.31-.253,3.039,3.039,0,0,1-1.036-.7,3.418,3.418,0,0,1,0-4.706,3.043,3.043,0,0,1,1.036-.7,3.365,3.365,0,0,1,1.31-.251,3.31,3.31,0,0,1,1.3.251m-4.181.18a4.039,4.039,0,0,0-1.17,2.863,4.035,4.035,0,0,0,.315,1.6,3.946,3.946,0,0,0,2.132,2.132,4.178,4.178,0,0,0,3.185,0,3.941,3.941,0,0,0,2.132-2.132,4.059,4.059,0,0,0-6.6-4.463" transform="translate(-54.566 -17.542)" fill="#0747cc"/>
      <path id="Path_234" data-name="Path 234" d="M1443.322,976.367a3.35,3.35,0,0,1,.251,1.3,3.287,3.287,0,0,1-.251,1.295,3.065,3.065,0,0,1-1.71,1.677,3.422,3.422,0,0,1-2.557-.007,3.192,3.192,0,0,1-1.028-.683,3.137,3.137,0,0,1-.674-1.02,3.284,3.284,0,0,1-.242-1.263,3.357,3.357,0,0,1,.242-1.272,3.093,3.093,0,0,1,.674-1.025,3.146,3.146,0,0,1,1.028-.683,3.3,3.3,0,0,1,1.287-.251,3.34,3.34,0,0,1,1.27.242,3.145,3.145,0,0,1,1.028.666,3.105,3.105,0,0,1,.683,1.02m-1.059-2.2a3.858,3.858,0,0,0-1.97-.47,3.915,3.915,0,0,0-3.951,3.952,4,4,0,0,0,.305,1.57,3.925,3.925,0,0,0,3.646,2.4,4.112,4.112,0,0,0,1.115-.142,3.843,3.843,0,0,0,.9-.376,3.724,3.724,0,0,0,1.216-1.145v1.1a2.575,2.575,0,0,1-.831,2.086,3.413,3.413,0,0,1-2.274.7,3.558,3.558,0,0,1-1.867-.43,3.463,3.463,0,0,1-1.161-1.185l-.6.407a3.922,3.922,0,0,0,3.626,1.945,4.6,4.6,0,0,0,1.646-.274,3.486,3.486,0,0,0,1.216-.754,3.222,3.222,0,0,0,.754-1.122,3.679,3.679,0,0,0,.259-1.38v-7.231h-.769v1.521a3.65,3.65,0,0,0-1.264-1.176" transform="translate(-57.757 -17.542)" fill="#0747cc"/>
      <path id="Path_235" data-name="Path 235" d="M1450.7,983.212a2.254,2.254,0,0,1-1.49.5h-.284v.737h.3a2.973,2.973,0,0,0,2.015-.683,5.2,5.2,0,0,0,1.341-2.235l2.872-7.656h-.831l-2.433,6.651-2.824-6.651h-.86l3.246,7.656a4.039,4.039,0,0,1-1.051,1.685" transform="translate(-60.915 -17.585)" fill="#0747cc"/>
    </g>
  </g>
</svg>
