<svg xmlns="http://www.w3.org/2000/svg" xmlns:xlink="http://www.w3.org/1999/xlink" width="270" height="93" viewBox="0 0 270 93">
  <defs>
    <clipPath id="clip-Artboard_15">
      <rect width="270" height="93"/>
    </clipPath>
  </defs>
  <g id="Artboard_15" data-name="Artboard – 15" clip-path="url(#clip-Artboard_15)">
    <g id="Group_197" data-name="Group 197" transform="translate(-226.34 -452.559)">
      <g id="Group_131" data-name="Group 131" transform="translate(355.246 482.9)">
        <path id="Path_354" data-name="Path 354" d="M486.088,525.489c0,5.755-3.984,9.432-9.125,9.432a7.11,7.11,0,0,1-5.516-2.213v8.547h-5.312V516.33h5.073v2.111a7.118,7.118,0,0,1,5.754-2.383C482.1,516.058,486.088,519.735,486.088,525.489Zm-5.38,0c0-3.167-2.009-5.073-4.665-5.073s-4.664,1.907-4.664,5.073,2.009,5.073,4.664,5.073S480.708,528.656,480.708,525.489Z" transform="translate(-466.135 -509.384)"/>
        <path id="Path_355" data-name="Path 355" d="M533.223,497h5.312v25.265h-5.312Z" transform="translate(-509.729 -497)"/>
        <path id="Path_356" data-name="Path 356" d="M580.754,516.835v18.319h-5.04v-2.179a7.412,7.412,0,0,1-5.686,2.451c-4.6,0-7.831-2.588-7.831-8.24V516.835h5.312V526.4c0,3.065,1.362,4.426,3.711,4.426,2.452,0,4.222-1.566,4.222-4.937v-9.057Z" transform="translate(-528.557 -509.889)"/>
        <path id="Path_357" data-name="Path 357" d="M624.23,532.946,626,529.133a12.536,12.536,0,0,0,6.368,1.771c2.451,0,3.371-.647,3.371-1.669,0-3-11.066.068-11.066-7.252,0-3.473,3.133-5.925,8.479-5.925a15.062,15.062,0,0,1,7.048,1.6l-1.771,3.78a10.521,10.521,0,0,0-5.278-1.362c-2.384,0-3.4.749-3.4,1.7,0,3.132,11.066.1,11.066,7.32,0,3.4-3.167,5.822-8.649,5.822A15.73,15.73,0,0,1,624.23,532.946Z" transform="translate(-568.866 -509.384)"/>
      </g>
      <g id="Group_132" data-name="Group 132" transform="translate(295.487 475.301)">
        <path id="Path_358" data-name="Path 358" d="M341.563,522.864a5.918,5.918,0,0,1-2.462-2.6l-8.354-17.129L333.38,481.7a6,6,0,0,1,.7,1.1l11.151,22.863-4.979,10.207A5.962,5.962,0,0,0,341.563,522.864Z" transform="translate(-318.4 -479.458)" fill="#0747cc" fill-rule="evenodd"/>
        <path id="Path_359" data-name="Path 359" d="M301.45,522.817a6.047,6.047,0,0,1-.733-.045,5.956,5.956,0,0,1-5.185-6.637l4.372-35.6a5.955,5.955,0,1,1,11.822,1.452l-4.371,35.6A5.957,5.957,0,0,1,301.45,522.817Z" transform="translate(-295.487 -475.301)" fill="#0061ff"/>
        <path id="Path_360" data-name="Path 360" d="M413.052,532.324a5.81,5.81,0,0,1-.733.047,5.961,5.961,0,0,1-5.9-5.231l-2.145-17.483L413.853,490a.6.6,0,0,1,.013.081l4.371,35.6A5.951,5.951,0,0,1,413.052,532.324Z" transform="translate(-366.175 -484.855)" fill="#0747cc" fill-rule="evenodd"/>
        <path id="Path_361" data-name="Path 361" d="M358.827,519.457a5.957,5.957,0,0,1-5.348-8.568l15.726-32.242a5.956,5.956,0,1,1,10.705,5.222l-15.726,32.242A5.956,5.956,0,0,1,358.827,519.457Z" transform="translate(-332.778 -475.302)" fill="#0061ff"/>
      </g>
    </g>
  </g>
</svg>
