<svg xmlns="http://www.w3.org/2000/svg" xmlns:xlink="http://www.w3.org/1999/xlink" width="270" height="93" viewBox="0 0 270 93">
  <defs>
    <clipPath id="clip-Artboard_14">
      <rect width="270" height="93"/>
    </clipPath>
  </defs>
  <g id="Artboard_14" data-name="Artboard – 14" clip-path="url(#clip-Artboard_14)">
    <g id="Group_24" data-name="Group 24" transform="translate(25.794 16.045)">
      <path id="Path_170" data-name="Path 170" d="M578.387,296.058l4.668-1.989a2.381,2.381,0,0,1,3.314,2.19v28.5a4.763,4.763,0,0,1-2.9,4.381l-4.668,1.989a2.381,2.381,0,0,1-3.315-2.191v-28.5a4.762,4.762,0,0,1,2.9-4.381" transform="translate(-544.109 -282.173)" fill="#0061ff"/>
      <path id="Path_171" data-name="Path 171" d="M491.568,231.245l4.668-1.989a2.381,2.381,0,0,1,3.315,2.19v51.963a4.762,4.762,0,0,1-2.9,4.38l-4.668,1.99a2.381,2.381,0,0,1-3.314-2.191V235.626a4.762,4.762,0,0,1,2.9-4.381" transform="translate(-472.965 -229.062)" fill="#0554e5"/>
      <path id="Path_172" data-name="Path 172" d="M404.572,324.689l4.668-1.989a2.381,2.381,0,0,1,3.314,2.19v16.716a4.762,4.762,0,0,1-2.9,4.38l-4.668,1.989a2.381,2.381,0,0,1-3.314-2.19V329.07a4.762,4.762,0,0,1,2.9-4.381" transform="translate(-401.677 -305.634)" fill="#0847cc"/>
      <path id="Path_173" data-name="Path 173" d="M734.629,330h6.264l-6.53,24.195h-5.933l-4.308-14.318-4.309,14.318h-5.8L707.485,330h6.4l3.414,14.484L721.372,330h5.7l4.11,14.616Z" transform="translate(-652.269 -311.774)"/>
      <path id="Path_174" data-name="Path 174" d="M902.356,372.286c0-2.685-1.524-4.276-3.646-4.276s-3.646,1.591-3.646,4.276,1.525,4.275,3.646,4.275,3.646-1.59,3.646-4.275m-12.992,0a9.347,9.347,0,1,1,9.346,9.247,8.956,8.956,0,0,1-9.346-9.247" transform="translate(-801.309 -338.849)"/>
      <path id="Path_175" data-name="Path 175" d="M1019.077,364.509v5.171h-1.789c-3.248,0-4.806,1.557-4.806,4.805v7.988h-5.634V364.509h5.5v3.149a5.446,5.446,0,0,1,5.137-3.149Z" transform="translate(-897.58 -340.053)"/>
      <rect id="Rectangle_9" data-name="Rectangle 9" width="5.634" height="24.195" transform="translate(124.017 18.224)"/>
      <path id="Path_176" data-name="Path 176" d="M1146.563,345.211c0-2.685-1.591-4.276-3.712-4.276s-3.712,1.59-3.712,4.276,1.59,4.275,3.712,4.275,3.712-1.591,3.712-4.275M1146.5,330h5.634v24.195h-5.5v-2.419a5.959,5.959,0,0,1-5.271,2.685c-4.342,0-7.921-3.546-7.921-9.247s3.579-9.247,7.921-9.247a6.04,6.04,0,0,1,5.137,2.486Z" transform="translate(-1001.314 -311.773)"/>
      <path id="Path_177" data-name="Path 177" d="M1262.8,340.4a2.526,2.526,0,1,0,0-5.038h-3.646V340.4ZM1263.13,330c4.972,0,8.484,3.116,8.484,7.888s-3.513,7.889-8.484,7.889h-3.977v8.418h-6.033V330Z" transform="translate(-1099.387 -311.773)"/>
      <rect id="Rectangle_10" data-name="Rectangle 10" width="5.634" height="24.195" transform="translate(174.708 18.224)"/>
      <path id="Path_178" data-name="Path 178" d="M1425.958,364.509h5.634v17.964h-5.5v-2.684a6.789,6.789,0,0,1-5.7,2.95c-3.48,0-6.165-2.486-6.165-6.994V364.509h5.634v9.579c0,2.353,1.128,3.48,2.85,3.48,1.823,0,3.248-1.259,3.248-3.812Z" transform="translate(-1231.403 -340.053)"/>
      <path id="Path_179" data-name="Path 179" d="M1524.149,375.271h5.369c.066,1.16,1.193,1.955,2.817,1.955,1.359,0,2.187-.563,2.187-1.392,0-.629-.53-1.127-2.187-1.425l-3.05-.564c-3.48-.63-5.137-2.353-5.137-4.9,0-3.414,2.916-5.9,7.789-5.9,4.574,0,7.523,2.188,7.755,5.9h-5.368c-.166-.9-1.127-1.657-2.751-1.657-1.358,0-2.054.53-2.054,1.259,0,.564.464.9,2.154,1.194l3.049.563c3.48.63,5.17,2.353,5.17,5.071,0,3.613-2.95,6.165-7.822,6.165-4.838,0-7.887-2.518-7.921-6.263" transform="translate(-1321.48 -338.85)"/>
    </g>
  </g>
</svg>
