<svg xmlns="http://www.w3.org/2000/svg" xmlns:xlink="http://www.w3.org/1999/xlink" width="270" height="93" viewBox="0 0 270 93">
  <defs>
    <clipPath id="clip-Artboard_16">
      <rect width="270" height="93"/>
    </clipPath>
  </defs>
  <g id="Artboard_16" data-name="Artboard – 16" clip-path="url(#clip-Artboard_16)">
    <g id="Group_196" data-name="Group 196" transform="translate(32.466 9.402)">
      <path id="Path_346" data-name="Path 346" d="M213.265,63.319a8.672,8.672,0,0,0-6.955,3.155,7.2,7.2,0,0,0-6.346-3.155,7.811,7.811,0,0,0-6.059,2.509V63.606h-5.341V82.893h5.593v-9.68c0-3.442,1.757-5.055,4.23-5.055,2.33,0,3.657,1.434,3.657,4.553V82.893h5.593v-9.68c0-3.442,1.757-5.055,4.267-5.055,2.258,0,3.657,1.434,3.657,4.553V82.893h5.593V71.851C221.153,65.972,217.854,63.319,213.265,63.319Z" transform="translate(-108.224 -35.943)"/>
      <path id="Path_347" data-name="Path 347" d="M302.214,73.639c0,3.549-1.864,5.2-4.445,5.2-2.474,0-3.908-1.434-3.908-4.66V64.1h-5.593V75c0,5.951,3.406,8.676,8.246,8.676A7.8,7.8,0,0,0,302.5,81.1v2.294h5.306V64.1h-5.593Z" transform="translate(-171.456 -36.441)"/>
      <path id="Path_348" data-name="Path 348" d="M355.09,69.342c0-1,1.075-1.793,3.585-1.793a11.078,11.078,0,0,1,5.557,1.434L366.1,65a15.861,15.861,0,0,0-7.421-1.685c-5.629,0-8.927,2.581-8.927,6.238,0,7.709,11.652,4.481,11.652,7.637,0,1.076-.968,1.757-3.549,1.757a13.194,13.194,0,0,1-6.7-1.864L349.282,81.1a16.558,16.558,0,0,0,8.353,2.08c5.772,0,9.106-2.546,9.106-6.131C366.741,69.449,355.09,72.64,355.09,69.342Z" transform="translate(-210.151 -35.943)"/>
      <path id="Path_349" data-name="Path 349" d="M406.227,39.7A3.138,3.138,0,1,0,409.7,42.71C409.7,40.99,408.306,39.7,406.227,39.7Z" transform="translate(-244.06 -20.964)"/>
      <rect id="Rectangle_49" data-name="Rectangle 49" width="5.593" height="19.288" transform="translate(159.371 27.662)"/>
      <path id="Path_350" data-name="Path 350" d="M438.253,78.592c-2.832,0-5.055-1.972-5.055-5.342s2.223-5.341,5.055-5.341a4.809,4.809,0,0,1,4.338,2.653l4.338-2.331c-1.4-3.155-4.589-4.911-8.64-4.911-6.274,0-10.755,4.123-10.755,9.93s4.481,9.931,10.755,9.931c4.051,0,7.242-1.793,8.64-4.876l-4.338-2.366A4.746,4.746,0,0,1,438.253,78.592Z" transform="translate(-259.778 -35.943)"/>
      <g id="Group_129" data-name="Group 129" transform="translate(17.916 6.643)">
        <path id="Path_351" data-name="Path 351" d="M69,31.693l-3.724-2.151A7.619,7.619,0,0,0,55.739,31.1c-.095.109-.189.217-.278.332l-1.387,1.753v-7.5a4.521,4.521,0,0,0-2.261-3.916l-7.647-4.415a7.243,7.243,0,0,0-9.312,1.793l-1.59,2.024V13.666A4.527,4.527,0,0,0,31,9.754L27.038,7.467a6.083,6.083,0,0,0-9.122,5.272V61.464a6.082,6.082,0,0,0,9.122,5.265L31,64.442a4.52,4.52,0,0,0,2.26-3.912V41.575l1.756-3.691,3.712-7.868V56.849a1.809,1.809,0,0,0,2.714,1.563l11.728-6.767a1.819,1.819,0,0,0,.9-1.57V46.643l5.454-11.457.02-.041V44.83a1.807,1.807,0,0,0,2.707,1.57L69,42.51a6.245,6.245,0,0,0,0-10.817Z" transform="translate(-17.916 -6.643)" fill="#0061ff"/>
        <path id="Path_352" data-name="Path 352" d="M65.342,48.2c0-5.827-2.734-6.8-4.416-5.959-.695.833-1.052,1.338-1.052,1.338v20.4l5.468-11.56Z" transform="translate(-44.526 -29.052)" fill="#0747cc"/>
        <path id="Path_353" data-name="Path 353" d="M118.427,73.35c3.167-.629,3.709,2.4,3.79,4.087L116.762,88.9V75.435Z" transform="translate(-80.604 -48.895)" fill="#0747cc"/>
      </g>
    </g>
  </g>
</svg>
