<svg id="Manager" xmlns="http://www.w3.org/2000/svg" viewBox="0 0 48 48"><defs><style>.cls-1{fill:#0061ff;}</style></defs><path class="cls-1" d="M13.78,10.55a1,1,0,0,0-.95,1,.94.94,0,0,0,.29.68l.9.9a1,1,0,1,0,1.38-1.32l0,0-.9-.9A.94.94,0,0,0,13.78,10.55Zm18.62.14a6.66,6.66,0,0,0-1.56.19.66.66,0,0,0-.46.54l-.06.51A1,1,0,0,1,29,12.7l-.47-.2a.61.61,0,0,0-.69.13,6.24,6.24,0,0,0-1.57,2.69.63.63,0,0,0,.24.67l.41.31a1,1,0,0,1,.38.76,1,1,0,0,1-.38.77l-.41.3a.63.63,0,0,0-.24.67,6.44,6.44,0,0,0,1.57,2.7.63.63,0,0,0,.69.12l.47-.2a1,1,0,0,1,.85.06.92.92,0,0,1,.47.71l.06.51a.63.63,0,0,0,.46.54,6.5,6.5,0,0,0,3.12,0,.64.64,0,0,0,.46-.54l.06-.51a.93.93,0,0,1,.47-.71,1,1,0,0,1,.85-.06l.47.2A.63.63,0,0,0,37,21.5a6.34,6.34,0,0,0,1.57-2.7.63.63,0,0,0-.24-.67l-.41-.3a1,1,0,0,1-.38-.77,1,1,0,0,1,.38-.76l.41-.31a.63.63,0,0,0,.24-.67A6.33,6.33,0,0,0,37,12.63a.63.63,0,0,0-.7-.13l-.47.2a1,1,0,0,1-1.32-.77l-.06-.51a.64.64,0,0,0-.46-.54A6.66,6.66,0,0,0,32.4,10.69ZM24.75,12a8.9,8.9,0,0,0-6.13,15.37,4.69,4.69,0,0,1,1.3,2.39l.3,1.34h9.07l.3-1.34a4.69,4.69,0,0,1,1.3-2.39,8.82,8.82,0,0,0,1.92-2.66l-.41,0a7.64,7.64,0,0,1-5.86-12.55A8.76,8.76,0,0,0,24.75,12Zm7.65,3.17a1.91,1.91,0,1,1-1.91,1.91A1.91,1.91,0,0,1,32.4,15.15ZM10.42,19a1,1,0,0,0-1,.94,1,1,0,0,0,.94,1h1.94a1,1,0,0,0,0-1.91H10.42Zm24.38,7.5a1,1,0,0,0-.95,1,.94.94,0,0,0,.29.69l.9.9a1,1,0,0,0,1.38-1.33l0,0-.9-.9A1,1,0,0,0,34.8,26.47Zm-20.12,0a1,1,0,0,0-.66.28l-.9.9a1,1,0,0,0,0,1.36,1,1,0,0,0,1.35,0l0,0,.9-.9a1,1,0,0,0-.69-1.64Zm6,6.51.61,2.71a2.22,2.22,0,0,0,2.17,1.75h2.67a2.22,2.22,0,0,0,2.17-1.75L28.87,33Z"/></svg>