<svg id="Manager" xmlns="http://www.w3.org/2000/svg" viewBox="0 0 48 48"><defs><style>.cls-1{fill:#0061ff;}</style></defs><path class="cls-1" d="M24,11.85A2.86,2.86,0,1,0,26.86,9,2.87,2.87,0,0,0,24,11.85Zm9.45,1.43a3.89,3.89,0,0,0-2.19.66l-2.91,1.94A4,4,0,0,0,27,17.45l-1,2.18-3.78,2.74-2.46-1.5a3,3,0,0,0-2.2-.38l-3.14.63a5.45,5.45,0,0,0-1.58.58L9.89,23.33a1,1,0,0,0-.39.38L7.71,26.66a1.07,1.07,0,1,0,1.84,1.11l1.59-2.63,2.28-.85L12,33.41l-2.16,4a1.09,1.09,0,0,0,.38,1.43,1.15,1.15,0,0,0,.56.15,1.09,1.09,0,0,0,.89-.46l2.77-4a1.11,1.11,0,0,0,.14-.29l1.19-3.81h5.35l3.28,2.71a1.06,1.06,0,0,0,.81.23,2.5,2.5,0,0,0-1.91,2.43v2.14A1.07,1.07,0,0,0,24.36,39h14.3a1.07,1.07,0,0,0,1.07-1.07V34.37a1.09,1.09,0,0,0-1.07-1.08,1,1,0,0,0,.55-.15,1.07,1.07,0,0,0,.4-1.42l-2.16-4.1-.52-4.26a4.52,4.52,0,0,0-.4-1.39l-2.84-6.14,2.59-.32,2.45,1.84A1.07,1.07,0,0,0,40,15.64l-2.86-2.15a1.1,1.1,0,0,0-.65-.21ZM13.28,16.85A2.86,2.86,0,1,0,16.14,14,2.86,2.86,0,0,0,13.28,16.85Zm17,5.38-1.95,4.56a1.07,1.07,0,0,0-.09.43v5a1.08,1.08,0,0,0,2.14.15l.67-4.7L33.36,25l1.45,3.4.1.17,2.86,4.29a1,1,0,0,0,.89.47H25.79a1.84,1.84,0,0,0-.41.05,1.15,1.15,0,0,0,.48-.3,1.07,1.07,0,0,0,0-1.48l-3.22-3.3a1.06,1.06,0,0,0-.64-.32l-3.63-.41L19,23.48l2.82,1.16a1,1,0,0,0,.41.08,1,1,0,0,0,.62-.2h0l4.58-3.32a1,1,0,0,0,.21-.2h0L29,19.28Z"/></svg>