<svg id="Manager" xmlns="http://www.w3.org/2000/svg" viewBox="0 0 48 48"><defs><style>.cls-1{fill:#0061ff;}</style></defs><path class="cls-1" d="M16.92,9.45a1,1,0,0,0-.62.22L13.44,11a1.09,1.09,0,1,0,.93,2h0l.6-.28A13.25,13.25,0,0,0,14.54,16a13,13,0,0,0,1.06,5.16,1.09,1.09,0,1,0,2-.86,10.8,10.8,0,0,1-.88-4.3,10.62,10.62,0,0,1,.35-2.72l.39.83a1.09,1.09,0,0,0,2-.92v0L18,10.08a1.05,1.05,0,0,0-.54-.52h0A1,1,0,0,0,16.92,9.45Zm10.72,0A6.55,6.55,0,1,0,34.18,16,6.56,6.56,0,0,0,27.64,9.46Zm0,2.38a3.68,3.68,0,0,1,.32.72,13.49,13.49,0,0,1,.4,3.44,13.51,13.51,0,0,1-.4,3.45,3.68,3.68,0,0,1-.32.72,2.78,2.78,0,0,1-.32-.72A13,13,0,0,1,26.91,16a13,13,0,0,1,.41-3.44A2.78,2.78,0,0,1,27.64,11.84Zm-2.53.61A15.4,15.4,0,0,0,24.73,16a15.43,15.43,0,0,0,.38,3.56,4.35,4.35,0,0,1,0-7.11Zm5.06,0a4.37,4.37,0,0,1,0,7.11A15.43,15.43,0,0,0,30.55,16,15.4,15.4,0,0,0,30.17,12.45Zm7.92,9.38c-.75,0-1.57.49-3.31,1.39-1.44.75-2.77,1.46-3.62,2a4.62,4.62,0,0,1,.11,1,4.36,4.36,0,0,1-4.36,4.36H21.45a1.09,1.09,0,0,1,0-2.18h5.46a2.18,2.18,0,0,0,2.18-2.18,2.15,2.15,0,0,0-.75-1.63A3.24,3.24,0,0,0,26.55,24h-3.7a15.88,15.88,0,0,1-3.65-.4,10.72,10.72,0,0,0-2.6-.32c-5.33,0-8.38,6.55-8.51,6.83a1.09,1.09,0,0,0,.12,1.1l5.09,6.91a1.09,1.09,0,0,0,.88.44l.2,0a1.1,1.1,0,0,0,.86-.8,2.73,2.73,0,0,1,2.58-2.09,34.79,34.79,0,0,1,4.31.36,35.93,35.93,0,0,0,4.42.37c2,0,3.45-1.54,7.63-5.82,5.32-5.44,5.82-5.91,5.82-7A1.82,1.82,0,0,0,38.09,21.83Z"/></svg>