<svg id="Manager" xmlns="http://www.w3.org/2000/svg" viewBox="0 0 48 48"><defs><style>.cls-1{fill:#0061ff;}</style></defs><path class="cls-1" d="M30.46,11.44C28,11.44,25.84,12.63,24,15c-1.84-2.33-4-3.52-6.46-3.52a7.91,7.91,0,0,0-7.89,7.9c0,4.12,5,8.83,9.9,13.37,1.31,1.23,2.54,2.38,3.69,3.53a1.06,1.06,0,0,0,1.52,0c1.15-1.15,2.38-2.3,3.69-3.53,4.87-4.54,9.9-9.25,9.9-13.37A7.91,7.91,0,0,0,30.46,11.44Zm1.79,9.69H30.82v1.44a1.08,1.08,0,0,1-2.16,0V21.13H27.23a1.08,1.08,0,1,1,0-2.15h1.43V17.54a1.08,1.08,0,0,1,2.16,0V19h1.43a1.08,1.08,0,1,1,0,2.15Z"/></svg>