<svg id="Manager" xmlns="http://www.w3.org/2000/svg" viewBox="0 0 48 48"><defs><style>.cls-1{fill:#0061ff;}</style></defs><path class="cls-1" d="M24.58,11.28A8.4,8.4,0,1,0,33,19.65,8.36,8.36,0,0,0,24.58,11.28ZM12.74,15.72a4.44,4.44,0,1,0,0,8.88,4.31,4.31,0,0,0,2.77-1c-.15-.36-.25-.72-.37-1.11a3.31,3.31,0,0,1-5.36-.83h5.13a10,10,0,0,1-.18-2,9.57,9.57,0,0,1,.5-3.14A4.36,4.36,0,0,0,12.74,15.72Zm23.68,0a4.42,4.42,0,0,0-2.5.79,9.32,9.32,0,0,1,.51,3.14,10,10,0,0,1-.18,2h5.13a3.31,3.31,0,0,1-5.36.83c-.12.39-.22.75-.37,1.11a4.31,4.31,0,0,0,2.77,1,4.44,4.44,0,0,0,0-8.88ZM19,22.47h11.2a6.25,6.25,0,0,1-11.2,0Zm-8.74,3A4.56,4.56,0,0,0,6.81,29h10a11.25,11.25,0,0,1,1.58-.69,4.41,4.41,0,0,0-3.2-2.87,5.49,5.49,0,0,1-5,0Zm23.68,0a4.39,4.39,0,0,0-3.19,2.87,11.25,11.25,0,0,1,1.58.69h10a4.54,4.54,0,0,0-3.42-3.56,5.51,5.51,0,0,1-5,0Zm-14.2,4c-3.12.82-5.54,2.76-6.66,6.93h23c-1.12-4.18-3.54-6.11-6.66-6.93a10.44,10.44,0,0,1-9.72,0Z"/></svg>