<svg xmlns="http://www.w3.org/2000/svg" width="177.998" height="45.764" viewBox="0 0 177.998 45.764">
  <g id="Group_188" data-name="Group 188" transform="translate(0 0)">
    <g id="Group_140" data-name="Group 140" transform="translate(0 0)">
      <path id="Path_374" data-name="Path 374" d="M576.93,216.213l3.507-1.495a1.789,1.789,0,0,1,2.49,1.646v21.411a3.578,3.578,0,0,1-2.175,3.291l-3.507,1.495a1.789,1.789,0,0,1-2.49-1.646V219.5A3.578,3.578,0,0,1,576.93,216.213Z" transform="translate(-551.175 -205.781)" fill="#0061ff"/>
      <path id="Path_375" data-name="Path 375" d="M289.845,1.9,293.352.4a1.789,1.789,0,0,1,2.49,1.646V41.089a3.578,3.578,0,0,1-2.175,3.291l-3.507,1.495a1.789,1.789,0,0,1-2.49-1.646V5.188A3.578,3.578,0,0,1,289.845,1.9Z" transform="translate(-275.868 -0.256)" fill="#0454e6"/>
      <path id="Path_376" data-name="Path 376" d="M2.175,310.888l3.507-1.495a1.789,1.789,0,0,1,2.49,1.646V323.6A3.578,3.578,0,0,1,6,326.89L2.49,328.385A1.789,1.789,0,0,1,0,326.739V314.18A3.578,3.578,0,0,1,2.175,310.888Z" transform="translate(0 -296.572)" fill="#0747cc"/>
    </g>
    <g id="Group_141" data-name="Group 141" transform="translate(41.486 13.494)">
      <path id="Path_377" data-name="Path 377" d="M1025.509,347.373h5.927V364.8H1027V353.723L1022.77,364.8h-2.988l-4.233-11.081V364.8h-4.333V347.373h6.051l4.134,10.708Z" transform="translate(-1011.215 -346.626)"/>
      <path id="Path_378" data-name="Path 378" d="M1582.1,443.278h4.233v13.5H1582.2v-2.017a5.1,5.1,0,0,1-4.283,2.216c-2.615,0-4.632-1.868-4.632-5.254v-8.442h4.233v7.2c0,1.768.847,2.615,2.142,2.615,1.37,0,2.44-.946,2.44-2.864Z" transform="translate(-1550.221 -438.596)"/>
      <path id="Path_379" data-name="Path 379" d="M1972.567,443.675v8.442h-4.233v-7.1c0-1.793-.847-2.714-2.241-2.714-1.469,0-2.54,1.021-2.54,2.963v6.848h-4.233v-13.5h4.134v2.017a5.247,5.247,0,0,1,4.383-2.216C1970.525,438.421,1972.567,440.314,1972.567,443.675Z" transform="translate(-1920.422 -433.939)"/>
      <path id="Path_380" data-name="Path 380" d="M2341.813,329.164h4.233v18.179h-4.134v-1.818a4.476,4.476,0,0,1-3.959,2.017c-3.262,0-5.952-2.665-5.952-6.948s2.689-6.948,5.952-6.948a4.538,4.538,0,0,1,3.86,1.868Zm.05,11.43c0-2.017-1.2-3.212-2.789-3.212s-2.789,1.2-2.789,3.212,1.2,3.212,2.789,3.212S2341.863,342.611,2341.863,340.594Z" transform="translate(-2277.816 -329.164)"/>
      <path id="Path_381" data-name="Path 381" d="M2725.327,445.369a7.023,7.023,0,1,1,7.022,6.948A6.729,6.729,0,0,1,2725.327,445.369Zm9.762,0c0-2.017-1.146-3.212-2.739-3.212s-2.739,1.2-2.739,3.212,1.146,3.212,2.739,3.212S2735.088,447.386,2735.088,445.369Z" transform="translate(-2655.004 -433.939)"/>
      <path id="Path_382" data-name="Path 382" d="M3131.029,347.373c3.735,0,6.375,2.341,6.375,5.927s-2.64,5.927-6.375,5.927h-2.988V364.8h-4.532V347.373Zm-.249,7.819a1.9,1.9,0,1,0,0-3.785h-2.739v3.785Z" transform="translate(-3036.851 -346.626)"/>
      <path id="Path_383" data-name="Path 383" d="M3513.192,347.343V329.164h4.233v18.179Z" transform="translate(-3410.547 -329.164)"/>
      <path id="Path_384" data-name="Path 384" d="M3689.535,443.278h4.234v13.5h-4.134v-2.017a5.1,5.1,0,0,1-4.283,2.216c-2.615,0-4.632-1.868-4.632-5.254v-8.442h4.233v7.2c0,1.768.847,2.615,2.142,2.615,1.37,0,2.44-.946,2.44-2.864Z" transform="translate(-3571.202 -438.596)"/>
      <path id="Path_385" data-name="Path 385" d="M4050.372,447.61h4.034c.05.872.9,1.469,2.117,1.469,1.021,0,1.644-.423,1.644-1.046,0-.473-.4-.847-1.644-1.071l-2.291-.423c-2.615-.473-3.86-1.768-3.86-3.686,0-2.565,2.191-4.433,5.852-4.433,3.437,0,5.653,1.644,5.827,4.433h-4.034c-.125-.672-.847-1.245-2.067-1.245-1.021,0-1.544.4-1.544.946,0,.423.349.672,1.619.9l2.291.423c2.615.473,3.885,1.768,3.885,3.81,0,2.714-2.216,4.632-5.877,4.632C4052.688,452.316,4050.4,450.424,4050.372,447.61Z" transform="translate(-3925.689 -433.939)"/>
    </g>
  </g>
</svg>
