<svg id="Layer_1" data-name="Layer 1" xmlns="http://www.w3.org/2000/svg" xmlns:xlink="http://www.w3.org/1999/xlink" viewBox="0 0 939.07 358.67"><defs><style>.cls-1{fill:url(#linear-gradient);}.cls-2{fill:url(#linear-gradient-2);}</style><linearGradient id="linear-gradient" x1="68.68" y1="116.41" x2="323.27" y2="261.17" gradientUnits="userSpaceOnUse"><stop offset="0" stop-color="#f4e441"/><stop offset="1" stop-color="#e9c711"/></linearGradient><linearGradient id="linear-gradient-2" x1="281.41" y1="102.88" x2="-58.48" y2="239.34" gradientUnits="userSpaceOnUse"><stop offset="0" stop-color="#ff7300"/><stop offset="0.29" stop-color="#ff4800"/><stop offset="0.63" stop-color="#c10e00"/><stop offset="1" stop-color="#510017"/></linearGradient></defs><path d="M443.34,150.58V180.2h59.42v29.42H443.34v46.16H405.26V121.16H510.84v29.42Z"/><path d="M518.15,203.47c0-31.35,24.81-53.66,58.84-53.66,34.43,0,58.85,22.31,58.85,53.66,0,31.54-24.42,54-58.85,54C543,257.51,518.15,235,518.15,203.47Zm80.77,0c0-15.77-9.43-24.62-21.93-24.62-12.3,0-21.92,8.85-21.92,24.62,0,16,9.62,25,21.92,25C589.49,228.47,598.92,219.43,598.92,203.47Z"/><path d="M830.64,196.16v59.62H794.11V202.12c0-15-6.16-21.34-15.77-21.34-10.58,0-18.27,7.11-18.27,23.26v51.74H723.53V202.12c0-15-6-21.34-15.77-21.34-10.77,0-18.46,7.11-18.46,23.26v51.74H652.76V151.54h34.81v11c7.88-8.47,18.84-12.7,31.15-12.7,14.23,0,26.35,5.2,33.65,16.35,8.27-10.38,21.16-16.35,36.16-16.35C812.76,149.81,830.64,163.85,830.64,196.16Z"/><path d="M849.68,120.58c0-11,8.85-19.42,22.31-19.42S894.3,109.05,894.3,120c0,11.53-8.85,20-22.31,20S849.68,131.54,849.68,120.58Zm4,31h36.54V255.78H853.72Z"/><rect class="cls-1" width="358.67" height="358.67" rx="123.44"/><path class="cls-2" d="M87.23,272.36V86.3A3.74,3.74,0,0,1,91,82.56H279.53A3.75,3.75,0,0,1,283,87.75L233,207.32a3.74,3.74,0,0,1-3.45,2.3h-58a3.74,3.74,0,0,0-2.43.9L93.41,275.2A3.75,3.75,0,0,1,87.23,272.36Z"/></svg>