<svg xmlns="http://www.w3.org/2000/svg" xmlns:xlink="http://www.w3.org/1999/xlink" width="270" height="93" viewBox="0 0 270 93">
  <defs>
    <clipPath id="clip-Artboard_9">
      <rect width="270" height="93"/>
    </clipPath>
  </defs>
  <g id="Artboard_9" data-name="Artboard – 9" clip-path="url(#clip-Artboard_9)">
    <g id="Group_196" data-name="Group 196" transform="translate(-8.012 0.969)">
      <path id="Path_346" data-name="Path 346" d="M220.1,63.319a11.074,11.074,0,0,0-8.881,4.028,9.193,9.193,0,0,0-8.1-4.028,9.974,9.974,0,0,0-7.737,3.2V63.685h-6.82V88.314h7.141V75.953c0-4.395,2.243-6.455,5.4-6.455,2.975,0,4.669,1.831,4.669,5.814v13h7.141V75.953c0-4.395,2.243-6.455,5.449-6.455,2.883,0,4.669,1.831,4.669,5.814v13h7.141v-14.1C230.176,66.706,225.965,63.319,220.1,63.319Z" transform="translate(-90.939 -30.203)"/>
      <path id="Path_347" data-name="Path 347" d="M306.076,76.28c0,4.532-2.38,6.638-5.676,6.638-3.159,0-4.99-1.831-4.99-5.951V64.1h-7.141V78.02c0,7.6,4.349,11.079,10.529,11.079a9.966,9.966,0,0,0,7.645-3.3v2.93h6.775V64.1h-7.141Z" transform="translate(-144.072 -30.621)"/>
      <path id="Path_348" data-name="Path 348" d="M356.7,71.01c0-1.282,1.373-2.289,4.578-2.289a14.146,14.146,0,0,1,7.1,1.831l2.38-5.082a20.253,20.253,0,0,0-9.476-2.151c-7.187,0-11.4,3.3-11.4,7.965,0,9.843,14.878,5.722,14.878,9.751,0,1.374-1.236,2.243-4.532,2.243a16.848,16.848,0,0,1-8.56-2.38l-2.38,5.127c2.289,1.511,6.5,2.655,10.666,2.655,7.371,0,11.628-3.251,11.628-7.828C371.576,71.147,356.7,75.221,356.7,71.01Z" transform="translate(-176.587 -30.203)"/>
      <path id="Path_349" data-name="Path 349" d="M407.19,39.7c-2.655,0-4.441,1.739-4.441,3.982s1.786,3.983,4.441,3.983a4.106,4.106,0,0,0,4.44-4.12C411.63,41.347,409.845,39.7,407.19,39.7Z" transform="translate(-205.08 -17.616)"/>
      <rect id="Rectangle_49" data-name="Rectangle 49" width="7.141" height="24.629" transform="translate(198.54 33.482)"/>
      <path id="Path_350" data-name="Path 350" d="M441.221,82.821c-3.616,0-6.454-2.518-6.454-6.821s2.838-6.82,6.454-6.82a6.141,6.141,0,0,1,5.54,3.387L452.3,69.59c-1.785-4.029-5.86-6.271-11.033-6.271-8.012,0-13.733,5.264-13.733,12.68s5.722,12.681,13.733,12.681c5.173,0,9.248-2.289,11.033-6.226l-5.539-3.021A6.06,6.06,0,0,1,441.221,82.821Z" transform="translate(-218.288 -30.203)"/>
      <g id="Group_129" data-name="Group 129" transform="translate(17.916 6.643)">
        <path id="Path_351" data-name="Path 351" d="M83.143,38.629l-4.755-2.747A9.729,9.729,0,0,0,66.212,37.87c-.121.139-.242.277-.355.424l-1.771,2.238V30.957a5.773,5.773,0,0,0-2.887-5L51.436,20.32a9.248,9.248,0,0,0-11.891,2.29l-2.03,2.584V15.611a5.781,5.781,0,0,0-2.886-4.995L29.564,7.7a7.768,7.768,0,0,0-11.648,6.732V76.644a7.767,7.767,0,0,0,11.648,6.722l5.064-2.92a5.771,5.771,0,0,0,2.886-4.995v-24.2l2.243-4.713L44.5,36.487V70.751a2.311,2.311,0,0,0,3.465,2l14.975-8.641a2.322,2.322,0,0,0,1.15-2V57.719L71.051,43.09l.026-.052V55.4a2.308,2.308,0,0,0,3.457,2l8.608-4.967a7.974,7.974,0,0,0,0-13.812Z" transform="translate(-17.916 -6.643)" fill="#0061ff"/>
        <path id="Path_352" data-name="Path 352" d="M66.856,49.923c0-7.441-3.491-8.689-5.639-7.608-.887,1.064-1.343,1.709-1.343,1.709V70.077l6.982-14.761Z" transform="translate(-40.276 -25.473)" fill="#0747cc"/>
        <path id="Path_353" data-name="Path 353" d="M118.888,73.374c4.044-.8,4.735,3.068,4.839,5.219l-6.965,14.63V76.035Z" transform="translate(-70.592 -42.147)" fill="#0747cc"/>
      </g>
    </g>
  </g>
</svg>
