<svg xmlns="http://www.w3.org/2000/svg" xmlns:xlink="http://www.w3.org/1999/xlink" width="270" height="93" viewBox="0 0 270 93">
  <defs>
    <clipPath id="clip-Artboard_8">
      <rect width="270" height="93"/>
    </clipPath>
  </defs>
  <g id="Artboard_8" data-name="Artboard – 8" clip-path="url(#clip-Artboard_8)">
    <g id="Group_197" data-name="Group 197" transform="translate(-284.486 -460.459)">
      <g id="Group_131" data-name="Group 131" transform="translate(375.117 485.427)">
        <path id="Path_354" data-name="Path 354" d="M492.722,528.625c0,7.668-5.308,12.568-12.16,12.568a9.475,9.475,0,0,1-7.35-2.949v11.389h-7.078V516.421h6.76v2.813c1.769-2.132,4.4-3.175,7.668-3.175C487.414,516.058,492.722,520.958,492.722,528.625Zm-7.168,0c0-4.219-2.677-6.76-6.216-6.76s-6.216,2.541-6.216,6.76,2.677,6.76,6.216,6.76S485.554,532.845,485.554,528.625Z" transform="translate(-466.135 -507.165)"/>
        <path id="Path_355" data-name="Path 355" d="M533.223,497H540.3v33.666h-7.078Z" transform="translate(-501.918 -497)"/>
        <path id="Path_356" data-name="Path 356" d="M586.924,516.835v24.41h-6.715v-2.9a9.876,9.876,0,0,1-7.577,3.266c-6.125,0-10.435-3.448-10.435-10.98V516.835h7.078v12.749c0,4.083,1.815,5.9,4.945,5.9,3.267,0,5.626-2.087,5.626-6.579V516.835Z" transform="translate(-517.371 -507.579)"/>
        <path id="Path_357" data-name="Path 357" d="M624.23,538.562l2.359-5.082a16.7,16.7,0,0,0,8.485,2.36c3.266,0,4.491-.862,4.491-2.224,0-3.992-14.746.091-14.746-9.663,0-4.628,4.174-7.895,11.3-7.895a20.071,20.071,0,0,1,9.392,2.132l-2.359,5.036a14.019,14.019,0,0,0-7.033-1.815c-3.176,0-4.537,1-4.537,2.269,0,4.174,14.746.136,14.746,9.754,0,4.537-4.22,7.758-11.524,7.758C630.673,541.193,626.5,540.059,624.23,538.562Z" transform="translate(-550.458 -507.165)"/>
      </g>
      <g id="Group_132" data-name="Group 132" transform="translate(295.487 475.301)">
        <path id="Path_358" data-name="Path 358" d="M345.159,536.551a7.886,7.886,0,0,1-3.28-3.458l-11.131-22.825,3.508-28.57a8,8,0,0,1,.93,1.472l14.859,30.465-6.635,13.6A7.944,7.944,0,0,0,345.159,536.551Z" transform="translate(-314.294 -478.713)" fill="#0747cc" fill-rule="evenodd"/>
        <path id="Path_359" data-name="Path 359" d="M303.433,538.616a8.057,8.057,0,0,1-.977-.06,7.936,7.936,0,0,1-6.909-8.844l5.825-47.442a7.935,7.935,0,1,1,15.753,1.934L311.3,531.647A7.937,7.937,0,0,1,303.433,538.616Z" transform="translate(-295.487 -475.301)" fill="#0061ff"/>
        <path id="Path_360" data-name="Path 360" d="M415.972,546.4a7.741,7.741,0,0,1-.976.062,7.943,7.943,0,0,1-7.867-6.97l-2.858-23.3L417.039,490a.8.8,0,0,1,.017.107l5.824,47.441A7.93,7.93,0,0,1,415.972,546.4Z" transform="translate(-353.508 -483.143)" fill="#0747cc" fill-rule="evenodd"/>
        <path id="Path_361" data-name="Path 361" d="M360.806,534.139a7.938,7.938,0,0,1-7.126-11.416l20.955-42.963a7.936,7.936,0,1,1,14.265,6.958l-20.955,42.963A7.937,7.937,0,0,1,360.806,534.139Z" transform="translate(-326.096 -475.301)" fill="#0061ff"/>
      </g>
    </g>
  </g>
</svg>
