<svg xmlns="http://www.w3.org/2000/svg" xmlns:xlink="http://www.w3.org/1999/xlink" width="270" height="93" viewBox="0 0 270 93">
  <defs>
    <clipPath id="clip-Artboard_7">
      <rect width="270" height="93"/>
    </clipPath>
  </defs>
  <g id="Artboard_7" data-name="Artboard – 7" clip-path="url(#clip-Artboard_7)">
    <g id="Group_195" data-name="Group 195" transform="translate(-1205.878 -890.482)">
      <path id="Path_226" data-name="Path 226" d="M1410.5,935.646q1.087-3.822,2.281-5.087a2.085,2.085,0,0,1,1.053-.211,14.979,14.979,0,0,0-.211,2.456q0,6.879,7.158,6.879a16.633,16.633,0,0,1-3.332,7.157q-2.422,2.948-4.738,2.948-3.3,0-3.3-6.527a27.684,27.684,0,0,1,1.088-7.614m8.877,16.036a26.631,26.631,0,0,0,6.105-12.561,29.838,29.838,0,0,0,7.719-2.527l-.07-.77q-.21-2.456-.7-2.948l-.982.281a24.257,24.257,0,0,1-5.614.912,14.062,14.062,0,0,0-1.719-6.807q-1.51-2.384-5.018-2.387a11.307,11.307,0,0,0-3.158.492l-3.157-.281a14.971,14.971,0,0,0-12,5.368,19.523,19.523,0,0,0-4.563,13.087q0,6.317,3.158,9.789a11.075,11.075,0,0,0,8.631,3.474,14.6,14.6,0,0,0,11.369-5.122m-40.035-16.036q1.088-3.822,2.28-5.087a2.089,2.089,0,0,1,1.053-.211,14.979,14.979,0,0,0-.211,2.456q0,6.879,7.158,6.879a16.612,16.612,0,0,1-3.332,7.157q-2.422,2.948-4.738,2.948-3.3,0-3.3-6.527a27.675,27.675,0,0,1,1.088-7.614m8.877,16.036a26.632,26.632,0,0,0,6.105-12.561,29.838,29.838,0,0,0,7.719-2.527l-.07-.77q-.211-2.456-.7-2.948l-.982.281a24.23,24.23,0,0,1-5.615.912,14.061,14.061,0,0,0-1.719-6.807q-1.51-2.384-5.017-2.387a11.328,11.328,0,0,0-3.16.492l-3.157-.281a14.974,14.974,0,0,0-12,5.368,19.528,19.528,0,0,0-4.562,13.087q0,6.317,3.158,9.789a11.08,11.08,0,0,0,8.631,3.474,14.6,14.6,0,0,0,11.369-5.122m-43.786,5.122q5.332,0,10.316-4.422a32.342,32.342,0,0,0,7.755-10.14,24,24,0,0,0,2.773-10.28q0-7.015-8.492-7.018l-.842,1.124a16.632,16.632,0,0,0-1.755,3.613,20.861,20.861,0,0,0-1.263,5.509l5.193,4.983a16.686,16.686,0,0,1-3.542,6.279q-2.7,3.195-4.388,3.195-1.051,0-1.053-1.86a53.924,53.924,0,0,1,1.088-7.685,52.509,52.509,0,0,0,1.089-8.842,6.887,6.887,0,0,0-1.438-4.666q-1.44-1.647-5.018-1.65a40.863,40.863,0,0,0-8.983,1.264l-.281,1.052a17.509,17.509,0,0,1,2.142,3.052,6.982,6.982,0,0,1,.525,2.983l-.912,14.667q0,8.841,7.088,8.841m-25.845-21.158q1.088-3.822,2.28-5.087a2.094,2.094,0,0,1,1.053-.211,14.962,14.962,0,0,0-.21,2.456q0,6.879,7.159,6.879a16.636,16.636,0,0,1-3.335,7.157q-2.422,2.948-4.737,2.948-3.3,0-3.3-6.527a27.754,27.754,0,0,1,1.088-7.614m8.877,16.036a26.631,26.631,0,0,0,6.105-12.561,29.829,29.829,0,0,0,7.719-2.527l-.07-.77q-.21-2.456-.7-2.948l-.983.281a24.22,24.22,0,0,1-5.612.912,14.061,14.061,0,0,0-1.72-6.807q-1.511-2.384-5.018-2.387a11.3,11.3,0,0,0-3.157.492l-3.16-.281a14.973,14.973,0,0,0-12,5.368,19.523,19.523,0,0,0-4.562,13.087q0,6.317,3.159,9.789a11.076,11.076,0,0,0,8.63,3.474,14.6,14.6,0,0,0,11.369-5.122m-40.035-16.036q1.088-3.822,2.281-5.087a2.085,2.085,0,0,1,1.053-.211,14.969,14.969,0,0,0-.212,2.456q0,6.879,7.16,6.879a16.637,16.637,0,0,1-3.335,7.157q-2.419,2.948-4.735,2.948-3.3,0-3.3-6.527a27.744,27.744,0,0,1,1.087-7.614m8.877,16.036a26.618,26.618,0,0,0,6.107-12.561,29.834,29.834,0,0,0,7.717-2.527l-.07-.77q-.21-2.456-.7-2.948l-.983.281a24.253,24.253,0,0,1-5.614.912,14.061,14.061,0,0,0-1.72-6.807q-1.511-2.384-5.018-2.387a11.3,11.3,0,0,0-3.157.492l-3.158-.281a14.98,14.98,0,0,0-12,5.368,19.522,19.522,0,0,0-4.56,13.087q0,6.317,3.157,9.789a11.079,11.079,0,0,0,8.632,3.474,14.6,14.6,0,0,0,11.368-5.122m-69.867,5.122q6.458,0,13.475-7.369a9.439,9.439,0,0,0,2.947,5.544,7.525,7.525,0,0,0,4.982,1.825q5.263,0,10.773-4.422a43.481,43.481,0,0,0,9.544-10.807,68.053,68.053,0,0,0,6.63-13.719,39.792,39.792,0,0,0,2.6-13.088,8.292,8.292,0,0,0-2.6-5.894q-2.594-2.667-7.647-2.667a9.56,9.56,0,0,0-1.965,1.615,18.374,18.374,0,0,0-4.492,10.667l7.93,5.332a28.64,28.64,0,0,1-2.842,10.352,36.867,36.867,0,0,1-5.684,9.016q-3.124,3.51-5.122,3.51t-2-3.93q0-1.965,1.789-12.842a110.181,110.181,0,0,0,1.79-16.071q0-5.193-1.192-7.719a35.623,35.623,0,0,0-14.667,2.877,34.337,34.337,0,0,1,1.332,10.034A127.666,127.666,0,0,1,1241,933.4q-1.02,8.669-1.018,9.087a13.694,13.694,0,0,1-3.228,2.913,6.524,6.524,0,0,1-3.3,1.369,1.891,1.891,0,0,1-1.825-1.193,14,14,0,0,1-.56-4.984q0-3.788.842-12.1t.841-14.282q0-5.963-1.753-8-10.667,0-16.844,1.615l-.28,1.4.912,1.053a24.974,24.974,0,0,1,2.947,4q1.122,2.735,1.122,8.56t-.56,12.7q-.562,6.879-.562,11.229a10.9,10.9,0,0,0,2.352,7.193,7.808,7.808,0,0,0,6.35,2.842" transform="translate(0 0)" fill="#0061ff"/>
      <path id="Path_227" data-name="Path 227" d="M1357.3,970.874V982.6h.979V970.874h4.117v-.922h-9.213v.922Z" transform="translate(-17.912 -8.206)" fill="#0747cc"/>
      <path id="Path_228" data-name="Path 228" d="M1363.865,977.948a3.62,3.62,0,0,1,.413-1.4,3.738,3.738,0,0,1,.846-1.062,3.835,3.835,0,0,1,2.5-.912,4.016,4.016,0,0,1,1.363.229,3.434,3.434,0,0,1,1.141.675,3.634,3.634,0,0,1,.819,1.07,3.873,3.873,0,0,1,.4,1.4Zm8.4.647c0-.062,0-.13.01-.2s.008-.147.008-.221a4.371,4.371,0,0,0-1.3-3.12,4.793,4.793,0,0,0-1.477-.978,4.8,4.8,0,0,0-5.261,1.006,4.578,4.578,0,0,0-1,1.5,5.049,5.049,0,0,0,0,3.749,4.586,4.586,0,0,0,1,1.5,4.643,4.643,0,0,0,1.512,1.006,4.856,4.856,0,0,0,6.195-1.92l-.7-.479a4.055,4.055,0,0,1-1.363,1.393,4.692,4.692,0,0,1-3.611.268,3.824,3.824,0,0,1-1.188-.7,3.473,3.473,0,0,1-.846-1.115,3.985,3.985,0,0,1-.376-1.512h8.382a1.032,1.032,0,0,1,.017-.185" transform="translate(-19.16 -8.688)" fill="#0747cc"/>
      <path id="Path_229" data-name="Path 229" d="M1383.946,980.921l-.7-.479a3.715,3.715,0,0,1-3.527,1.9,3.832,3.832,0,0,1-1.524-.3,3.541,3.541,0,0,1-1.191-.825,3.808,3.808,0,0,1-.776-1.243,4.21,4.21,0,0,1-.276-1.529,4.318,4.318,0,0,1,.268-1.532,3.515,3.515,0,0,1,1.957-2.05,3.81,3.81,0,0,1,1.524-.3,4.063,4.063,0,0,1,2.177.518,4.144,4.144,0,0,1,1.367,1.4l.7-.479a4.532,4.532,0,0,0-4.245-2.308,4.732,4.732,0,0,0-1.875.369,4.457,4.457,0,0,0-2.437,2.5,4.951,4.951,0,0,0-.342,1.855,5.065,5.065,0,0,0,.342,1.883,4.606,4.606,0,0,0,.958,1.514,4.479,4.479,0,0,0,1.478,1.015,4.688,4.688,0,0,0,1.875.369,4.635,4.635,0,0,0,4.245-2.288" transform="translate(-20.724 -8.688)" fill="#0747cc"/>
      <path id="Path_230" data-name="Path 230" d="M1387.795,982.6v-5.281a3.31,3.31,0,0,1,.812-2.372,2.855,2.855,0,0,1,2.179-.86,2.65,2.65,0,0,1,2.041.786,3.092,3.092,0,0,1,.728,2.188V982.6h.9v-5.65a4.365,4.365,0,0,0-.258-1.541,3.218,3.218,0,0,0-1.856-1.921,3.871,3.871,0,0,0-1.468-.268,3.441,3.441,0,0,0-3.083,1.551v-4.818h-.9V982.6Z" transform="translate(-22.247 -8.206)" fill="#0747cc"/>
      <path id="Path_231" data-name="Path 231" d="M1397.886,973.849v9.23h.9V977.8a3.306,3.306,0,0,1,.814-2.372,2.852,2.852,0,0,1,2.178-.858,2.654,2.654,0,0,1,2.04.784,3.1,3.1,0,0,1,.729,2.188v5.538h.9v-5.649a4.416,4.416,0,0,0-.256-1.541,3.219,3.219,0,0,0-1.858-1.92,3.833,3.833,0,0,0-1.465-.268,3.439,3.439,0,0,0-3.085,1.551v-1.4Z" transform="translate(-23.661 -8.688)" fill="#0747cc"/>
      <path id="Path_232" data-name="Path 232" d="M1411.575,982.046a3.572,3.572,0,0,1-1.219-.821,4.013,4.013,0,0,1,0-5.539,3.571,3.571,0,0,1,1.219-.821,3.96,3.96,0,0,1,1.541-.3,3.9,3.9,0,0,1,1.533.3,3.588,3.588,0,0,1,1.208.821,4.016,4.016,0,0,1,0,5.539,3.589,3.589,0,0,1-1.208.821,3.9,3.9,0,0,1-1.533.3,3.96,3.96,0,0,1-1.541-.3m4.911-.212a4.755,4.755,0,0,0-3.37-8.134,4.787,4.787,0,0,0-4.4,6.63,4.653,4.653,0,0,0,2.512,2.51,4.75,4.75,0,0,0,1.883.371,4.757,4.757,0,0,0,3.37-1.377" transform="translate(-25.006 -8.688)" fill="#0747cc"/>
      <rect id="Rectangle_18" data-name="Rectangle 18" width="0.905" height="12.645" transform="translate(1394.498 961.748)" fill="#0747cc"/>
      <path id="Path_233" data-name="Path 233" d="M1430.349,974.865a3.61,3.61,0,0,1,1.209.821,4.022,4.022,0,0,1,0,5.539,3.606,3.606,0,0,1-1.209.821,3.9,3.9,0,0,1-1.534.3,3.963,3.963,0,0,1-1.542-.3,3.577,3.577,0,0,1-1.219-.821,4.023,4.023,0,0,1,0-5.539,3.581,3.581,0,0,1,1.219-.821,3.962,3.962,0,0,1,1.542-.3,3.9,3.9,0,0,1,1.534.3m-4.921.212a4.754,4.754,0,0,0-1.377,3.37,4.749,4.749,0,0,0,.371,1.883,4.645,4.645,0,0,0,2.51,2.51,4.918,4.918,0,0,0,3.749,0,4.638,4.638,0,0,0,2.51-2.51,4.778,4.778,0,0,0-7.763-5.253" transform="translate(-27.025 -8.688)" fill="#0747cc"/>
      <path id="Path_234" data-name="Path 234" d="M1444.557,976.839a3.941,3.941,0,0,1,.3,1.534,3.867,3.867,0,0,1-.3,1.524,3.607,3.607,0,0,1-2.013,1.974,4.028,4.028,0,0,1-3.009-.008,3.757,3.757,0,0,1-1.209-.8,3.693,3.693,0,0,1-.794-1.2,3.867,3.867,0,0,1-.285-1.487,3.953,3.953,0,0,1,.285-1.5,3.642,3.642,0,0,1,.794-1.207,3.7,3.7,0,0,1,1.209-.8,3.879,3.879,0,0,1,1.515-.3,3.931,3.931,0,0,1,1.495.285,3.7,3.7,0,0,1,1.21.784,3.653,3.653,0,0,1,.8,1.2m-1.246-2.584a4.54,4.54,0,0,0-2.318-.553,4.608,4.608,0,0,0-4.651,4.652,4.7,4.7,0,0,0,.359,1.847,4.62,4.62,0,0,0,4.292,2.825,4.838,4.838,0,0,0,1.313-.167,4.514,4.514,0,0,0,1.062-.443,4.386,4.386,0,0,0,1.431-1.347v1.3a3.03,3.03,0,0,1-.979,2.456,4.017,4.017,0,0,1-2.677.825,4.187,4.187,0,0,1-2.2-.506,4.075,4.075,0,0,1-1.366-1.394l-.7.479a4.616,4.616,0,0,0,4.267,2.289,5.422,5.422,0,0,0,1.937-.322,4.1,4.1,0,0,0,1.431-.887,3.791,3.791,0,0,0,.887-1.32,4.327,4.327,0,0,0,.305-1.624v-8.511h-.9v1.79a4.3,4.3,0,0,0-1.487-1.384" transform="translate(-28.605 -8.688)" fill="#0747cc"/>
      <path id="Path_235" data-name="Path 235" d="M1451.088,984.866a2.652,2.652,0,0,1-1.753.583H1449v.867h.352a3.5,3.5,0,0,0,2.372-.8,6.115,6.115,0,0,0,1.578-2.63l3.38-9.011h-.979l-2.864,7.829-3.323-7.829H1448.5l3.82,9.011a4.753,4.753,0,0,1-1.237,1.983" transform="translate(-30.169 -8.71)" fill="#0747cc"/>
    </g>
  </g>
</svg>
