<svg id="Group_166" data-name="Group 166" xmlns="http://www.w3.org/2000/svg" width="168.869" height="47.093" viewBox="0 0 168.869 47.093">
  <path id="Path_170" data-name="Path 170" d="M577.73,295.563l3.609-1.538a1.841,1.841,0,0,1,2.563,1.693v22.033a3.683,3.683,0,0,1-2.238,3.387l-3.609,1.538a1.841,1.841,0,0,1-2.563-1.694V298.95a3.682,3.682,0,0,1,2.239-3.387" transform="translate(-551.227 -284.827)" fill="#0061ff"/>
  <path id="Path_171" data-name="Path 171" d="M490.911,230.75l3.609-1.538a1.841,1.841,0,0,1,2.563,1.693v40.176a3.682,3.682,0,0,1-2.238,3.387l-3.609,1.538a1.841,1.841,0,0,1-2.563-1.694V234.137a3.682,3.682,0,0,1,2.239-3.387" transform="translate(-476.528 -229.062)" fill="#0554e5"/>
  <path id="Path_172" data-name="Path 172" d="M403.915,324.194l3.609-1.538a1.841,1.841,0,0,1,2.563,1.693v12.924a3.682,3.682,0,0,1-2.238,3.387L404.24,342.2a1.841,1.841,0,0,1-2.563-1.693V327.581a3.682,3.682,0,0,1,2.239-3.387" transform="translate(-401.677 -309.461)" fill="#0847cc"/>
  <path id="Path_173" data-name="Path 173" d="M728.472,330h4.843L728.267,348.7H723.68l-3.331-11.07-3.331,11.07h-4.484L707.485,330h4.945l2.64,11.2,3.152-11.2h4.407l3.178,11.3Z" transform="translate(-664.794 -315.907)"/>
  <path id="Path_174" data-name="Path 174" d="M899.409,370.189c0-2.076-1.179-3.306-2.819-3.306s-2.819,1.23-2.819,3.306,1.179,3.305,2.819,3.305,2.819-1.23,2.819-3.305m-10.045,0a7.227,7.227,0,1,1,7.226,7.149,6.924,6.924,0,0,1-7.226-7.149" transform="translate(-821.283 -344.336)"/>
  <path id="Path_175" data-name="Path 175" d="M1016.3,364.509v4h-1.384c-2.512,0-3.716,1.2-3.716,3.715V378.4h-4.356V364.509h4.254v2.435a4.211,4.211,0,0,1,3.972-2.435Z" transform="translate(-922.365 -345.601)"/>
  <rect id="Rectangle_9" data-name="Rectangle 9" width="4.356" height="18.706" transform="translate(95.886 14.091)"/>
  <path id="Path_176" data-name="Path 176" d="M1143.585,341.76c0-2.076-1.23-3.306-2.87-3.306s-2.87,1.23-2.87,3.306,1.23,3.305,2.87,3.305,2.87-1.23,2.87-3.305M1143.534,330h4.356V348.7h-4.253v-1.871a4.607,4.607,0,0,1-4.075,2.076c-3.357,0-6.124-2.742-6.124-7.149s2.767-7.15,6.124-7.15a4.67,4.67,0,0,1,3.972,1.922Z" transform="translate(-1031.284 -315.907)"/>
  <path id="Path_177" data-name="Path 177" d="M1260.6,338.044a1.953,1.953,0,1,0,0-3.9h-2.819v3.9Zm.256-8.046c3.844,0,6.56,2.409,6.56,6.1s-2.716,6.1-6.56,6.1h-3.075V348.7h-4.664V330Z" transform="translate(-1134.259 -315.907)"/>
  <rect id="Rectangle_10" data-name="Rectangle 10" width="4.356" height="18.706" transform="translate(135.079 14.091)"/>
  <path id="Path_178" data-name="Path 178" d="M1423.3,364.509h4.356V378.4H1423.4v-2.076a5.249,5.249,0,0,1-4.408,2.281c-2.691,0-4.766-1.922-4.766-5.407v-8.687h4.356v7.406c0,1.819.872,2.69,2.2,2.69,1.41,0,2.511-.974,2.511-2.947Z" transform="translate(-1272.873 -345.601)"/>
  <path id="Path_179" data-name="Path 179" d="M1524.149,372.5h4.151c.051.9.922,1.512,2.178,1.512,1.051,0,1.691-.435,1.691-1.076,0-.487-.41-.871-1.691-1.1l-2.358-.436c-2.69-.487-3.972-1.819-3.972-3.792,0-2.64,2.255-4.561,6.022-4.561,3.536,0,5.817,1.691,6,4.561h-4.151c-.128-.692-.871-1.281-2.127-1.281-1.05,0-1.588.41-1.588.973,0,.436.359.692,1.665.923l2.358.435c2.691.487,4,1.82,4,3.92,0,2.794-2.281,4.766-6.047,4.766-3.741,0-6.1-1.947-6.124-4.843" transform="translate(-1367.451 -344.337)"/>
</svg>
